# xmcd
#
# Track frame offsets:
# 150
# 19782
# 38640
# 59800
# 86514
# 104907
# 127284
# 148734
# 166772
# 185427
# 205647
#
# Disc length: 3027 seconds
#
#
# Revision: 0
# Processed by: cddbd v1.5.1PL2 Copyright (c) Steve Scherf et al.
# Submitted via: FreeRIP 2.944 
#
DISCID=a00bd10b
DTITLE=The Robert Cray Band - Midnight Stroll
DYEAR=1900
DGENRE=Blues
TTITLE0=The Forecast (Calls For Pain)
TTITLE1=These Things
TTITLE2=My Problem
TTITLE3=Labor Of Love
TTITLE4=Bouncin' Back
TTITLE5=Consequences
TTITLE6=The Things You Do To Me
TTITLE7=Walk Around Time
TTITLE8=Move A Mountain
TTITLE9=Holdin' Court
TTITLE10=Midnight Stroll
EXTD=Featuring The Memphis Horns
EXTT0=
EXTT1=
EXTT2=
EXTT3=
EXTT4=
EXTT5=
EXTT6=
EXTT7=
EXTT8=
EXTT9=
EXTT10=
PLAYORDER=
